# xmcd
#
# Track frame offsets:
#	150
#	15948
#	29796
#	40044
#	55917
#	71415
#	86988
#	103086
#	115884
#	131082
#
# Disc length: 1914 seconds
#
# Revision: 1
# Processed by: cddbd v1.5.2PL0 Copyright (c) Steve Scherf et al.
# Submitted via: audiograbber 1.83.01
#
DISCID=8607780a
DTITLE=Toby Keith - Chronicles - Disc 1
DYEAR=1900
DGENRE=
TTITLE0=Should've Been a Cowboy
TTITLE1=He Ain't Worth Missing
TTITLE2=Under the Fall
TTITLE3=Some Kinda Good Kinda Hold on Me
TTITLE4=Wish I Didn't Know Now
TTITLE5=Ain't No Thang
TTITLE6=Valentine
TTITLE7=Little Less Talk and a Lot More Action
TTITLE8=Mama Come Quick
TTITLE9=Close But No Guitar
EXTD=
EXTT0=
EXTT1=
EXTT2=
EXTT3=
EXTT4=
EXTT5=
EXTT6=
EXTT7=
EXTT8=
EXTT9=
PLAYORDER=
